<svg width="128" height="105" viewBox="0 0 128 105" fill="none" xmlns="http://www.w3.org/2000/svg">
<path d="M9.6 13.125C4.3 13.125 0 17.5342 0 22.9688C0 26.0654 1.42 28.9775 3.84 30.8437L47.36 64.3125C49.64 66.0557 52.76 66.0557 55.04 64.3125L66.52 55.4941C71.3 43.2305 82.46 34.3096 95.78 32.9766L98.56 30.8437C100.98 28.9775 102.4 26.0654 102.4 22.9688C102.4 17.5342 98.1 13.125 92.8 13.125H9.6ZM58.88 69.5625C54.32 73.0693 48.08 73.0693 43.52 69.5625L0 36.0938V78.75C0 85.9893 5.74 91.875 12.8 91.875H72.04C67.02 85.6406 64 77.6221 64 68.9062C64 67.7578 64.06 66.6299 64.16 65.502L58.88 69.5625ZM128 68.9062C128 61.0741 124.966 53.5627 119.565 48.0245C114.164 42.4863 106.838 39.375 99.2 39.375C91.5618 39.375 84.2364 42.4863 78.8353 48.0245C73.4343 53.5627 70.4 61.0741 70.4 68.9062C70.4 76.7384 73.4343 84.2498 78.8353 89.788C84.2364 95.3262 91.5618 98.4375 99.2 98.4375C106.838 98.4375 114.164 95.3262 119.565 89.788C124.966 84.2498 128 76.7384 128 68.9062ZM112.66 60.0264C113.9 61.2979 113.9 63.3896 112.66 64.6611L98.26 79.4268C97.02 80.6982 94.98 80.6982 93.74 79.4268L85.74 71.2236C84.5 69.9521 84.5 67.8604 85.74 66.5889C86.98 65.3174 89.02 65.3174 90.26 66.5889L96 72.4746L108.14 60.0264C109.38 58.7549 111.42 58.7549 112.66 60.0264Z" fill="black"/>
</svg>
