<svg width="32" height="32" viewBox="0 0 32 32" fill="none" xmlns="http://www.w3.org/2000/svg">
<path d="M0.685714 31.3143C1.14286 31.7714 1.6 32 2.28571 32C2.97143 32 3.42857 31.7714 3.88571 31.3143L16 19.2L28.1143 31.3143C28.5714 31.7714 29.2571 32 29.7143 32C30.1714 32 30.8571 31.7714 31.3143 31.3143C32.2286 30.4 32.2286 29.0286 31.3143 28.1143L19.2 16L31.3143 3.88571C32.2286 2.97143 32.2286 1.6 31.3143 0.685714C30.4 -0.228571 29.0286 -0.228571 28.1143 0.685714L16 12.8L3.88571 0.685714C2.97143 -0.228571 1.6 -0.228571 0.685714 0.685714C-0.228571 1.6 -0.228571 2.97143 0.685714 3.88571L12.8 16L0.685714 28.1143C-0.228571 29.0286 -0.228571 30.4 0.685714 31.3143Z" fill="#686868"/>
</svg>
