<?xml version="1.0" encoding="UTF-8"?><svg preserveAspectRatio="none" viewBox="0 0 97 96" xmlns="http://www.w3.org/2000/svg"><path d="m70.9 65.6h-6.4c-0.8837 0-1.6 0.7163-1.6 1.6v6.4c0 0.8837 0.7163 1.6 1.6 1.6h6.4c0.8836 0 1.6-0.7163 1.6-1.6v-6.4c0-0.8837-0.7164-1.6-1.6-1.6z"/><path d="m67.7 41.6c-5.0632 0-10.013 1.5014-14.223 4.3144-4.2099 2.8129-7.4911 6.8111-9.4287 11.489s-2.4446 9.8251-1.4568 14.791 3.4259 9.5274 7.0062 13.108c3.5802 3.5803 8.1417 6.0184 13.108 7.0062s10.113 0.4808 14.791-1.4568 8.676-5.2188 11.489-9.4287c2.813-4.2099 4.3144-9.1594 4.3144-14.223-8e-3 -6.7871-2.7078-13.294-7.5069-18.093-4.7992-4.7992-11.306-7.499-18.093-7.507zm0 44.8c-3.1979 0.0045-6.346-0.7917-9.1572-2.3159-2.8113-1.5243-5.1962-3.7281-6.9372-6.4105-0.1147-0.1761-0.1936-0.373-0.2322-0.5796-0.0387-0.2066-0.0362-0.4187 0.0072-0.6244 0.0434-0.2056 0.1268-0.4007 0.2456-0.574 0.1188-0.1734 0.2705-0.3217 0.4466-0.4364s0.373-0.1936 0.5796-0.2323c0.2066-0.0386 0.4187-0.0361 0.6244 0.0073 0.2056 0.0434 0.4007 0.1268 0.574 0.2456 0.1734 0.1188 0.3217 0.2705 0.4364 0.4466 2.0344 3.1431 5.1054 5.4744 8.6797 6.5891 3.5742 1.1147 7.426 0.9423 10.886-0.4872s6.3109-4.0258 8.0564-7.338c1.7456-3.3123 2.2759-7.1313 1.4989-10.794-0.777-3.6626-2.8122-6.9373-5.7522-9.2556-2.94-2.3182-6.5991-3.5336-10.342-3.435-3.7428 0.0987-7.3328 1.505-10.147 3.9749s-4.6738 5.8472-5.2568 9.5456l0.2576-0.2576c0.3018-0.2915 0.7059-0.4527 1.1254-0.4491 0.4196 0.0037 0.8209 0.1719 1.1175 0.4686 0.2967 0.2966 0.4649 0.6979 0.4686 1.1175 0.0036 0.4195-0.1576 0.8236-0.4491 1.1254l-3.2 3.2c-0.3 0.3-0.7069 0.4685-1.1312 0.4685s-0.8312-0.1685-1.1312-0.4685l-3.2-3.2c-0.2915-0.3018-0.4527-0.7059-0.4491-1.1254 0.0037-0.4196 0.1719-0.8209 0.4686-1.1175 0.2966-0.2967 0.6979-0.4649 1.1175-0.4686 0.4195-0.0036 0.8236 0.1576 1.1254 0.4491l0.5952 0.5952c0.4124-3.6836 1.8821-7.1691 4.2319-10.036s5.4791-4.9918 9.0102-6.119c3.531-1.1272 7.3129-1.2082 10.889-0.2332s6.7935 2.9642 9.2639 5.7276c2.4703 2.7634 4.088 6.1827 4.6577 9.8453s0.067 7.4117-1.4472 10.795c-1.5143 3.3832-3.9755 6.2557-7.0865 8.2708-3.111 2.0152-6.7388 3.0867-10.445 3.0853zm8-19.2v6.4c0 1.273-0.5057 2.4939-1.4059 3.3941s-2.1211 1.4059-3.3941 1.4059h-6.4c-1.273 0-2.4939-0.5057-3.3941-1.4059s-1.4059-2.1211-1.4059-3.3941v-6.4c0.0041-0.9892 0.3137-1.953 0.8865-2.7595s1.3808-1.4164 2.3135-1.7461v-1.8944c0-1.273 0.5057-2.4939 1.4059-3.3941s2.1211-1.4059 3.3941-1.4059 2.4939 0.5057 3.3941 1.4059 1.4059 2.1211 1.4059 3.3941v1.8944c0.9327 0.3297 1.7407 0.9396 2.3135 1.7461s0.8824 1.7703 0.8865 2.7595z"/><path d="m69.3 60.8c0-0.4243-0.1686-0.8313-0.4686-1.1314-0.3001-0.3-0.707-0.4686-1.1314-0.4686-0.4243 0-0.8313 0.1686-1.1314 0.4686-0.3 0.3001-0.4686 0.7071-0.4686 1.1314v1.6h3.2v-1.6z"/><path d="m43.025 34.366c0.6389 0.5332 1.4447 0.8252 2.2768 0.8252s1.6379-0.292 2.2768-0.8252l36.53-31.125c-0.1349-0.02272-0.2712-0.03662-0.408-0.0416h-76.8c-0.13676 0.00498-0.27304 0.01888-0.408 0.0416l36.533 31.125z"/><path d="m67.7 38.4c7.0948 0.0029 13.936 2.6381 19.2 7.3952v-39.395c-0.0021-0.39291-0.0775-0.78198-0.2224-1.1472l-35.15 29.947 5.9808 5.096c3.2535-1.2474 6.7075-1.8899 10.192-1.896z"/><path d="m54.271 41.742-5.2656-4.48c-1.0908 0.7493-2.383 1.1505-3.7064 1.1505s-2.6156-0.4012-3.7064-1.1505l-35.101 29.896c0.13496 0.0227 0.27124 0.0366 0.408 0.0416h32c0.0057-5.2398 1.4399-10.379 4.1483-14.865s6.5885-8.1479 11.223-10.593z"/><path d="M39.0728 35.2L3.9208 5.2528C3.77718 5.61834 3.70232 6.00727 3.7 6.4V64C3.7019 64.3929 3.77733 64.782 3.9224 65.1472L39.0728 35.2Z"/></svg>
