<svg width="48" height="38" viewBox="0 0 48 38" fill="none" xmlns="http://www.w3.org/2000/svg">
<path d="M43.7 37.1H4.19998C1.89998 37.1 0 35.2 0 32.9V4.7C0 2.4 1.89998 0.5 4.19998 0.5H43.7C46 0.5 47.9 2.4 47.9 4.7V32.9C47.9 35.2 46 37.1 43.7 37.1ZM4.10001 3.2C3.30001 3.2 2.69998 3.79999 2.69998 4.59999V32.8C2.69998 33.6 3.30001 34.2 4.10001 34.2H43.6C44.4 34.2 45 33.6 45 32.8V4.59999C45 3.79999 44.4 3.2 43.6 3.2H4.10001Z" fill="#134563"/>
<path d="M31 17.2C27.9 17.2 25.5 14.7 25.5 11.7C25.5 8.69995 28 6.19995 31 6.19995C34 6.19995 36.5 8.69995 36.5 11.7C36.5 14.7 34 17.2 31 17.2ZM31 8.69995C29.4 8.69995 28.1 9.99995 28.1 11.5999C28.1 13.1999 29.4 14.5 31 14.5C32.6 14.5 33.9 13.1999 33.9 11.5999C33.9 9.99995 32.6 8.69995 31 8.69995Z" fill="#134563"/>
<path d="M38.4999 36.6L15.3999 14.9L2.19989 27.1L0.399902 25.2L15.3999 11.3L40.2999 34.7L38.4999 36.6Z" fill="#134563"/>
<path d="M45.6999 29.4L37.9999 23.2L31.5999 28.5L29.8999 26.4L37.9999 19.8L47.2999 27.4L45.6999 29.4Z" fill="#134563"/>
</svg>
