<svg width="32" height="32" viewBox="0 0 32 32" fill="none" xmlns="http://www.w3.org/2000/svg">
<path d="M13.3333 16L18.6666 21.3333M18.6666 16L13.3333 21.3333M5.33325 8H26.6666M21.3333 8L20.9725 6.91743C20.6227 5.86833 20.4478 5.34379 20.1235 4.95597C19.8371 4.61351 19.4694 4.34843 19.0539 4.18504C18.5834 4 18.0306 4 16.9247 4H15.0751C13.9693 4 13.4165 4 12.9459 4.18504C12.5305 4.34843 12.1627 4.61351 11.8763 4.95597C11.552 5.34379 11.3771 5.86833 11.0274 6.91743L10.6666 8M23.9999 8V21.6C23.9999 23.8403 23.9999 24.9603 23.5639 25.816C23.1805 26.5687 22.5686 27.1805 21.8159 27.564C20.9602 28 19.8402 28 17.5999 28H14.3999C12.1597 28 11.0396 28 10.184 27.564C9.43131 27.1805 8.81939 26.5687 8.43589 25.816C7.99992 24.9603 7.99992 23.8403 7.99992 21.6V8" stroke="#DE1616" stroke-width="2.5" stroke-linecap="round" stroke-linejoin="round"/>
</svg>
