<svg width="321" height="320" viewBox="0 0 321 320" fill="none" xmlns="http://www.w3.org/2000/svg">
<path d="M77.4451 219.879H215.869C217.178 219.879 218.245 218.812 218.245 217.503C218.245 216.194 217.178 215.127 215.869 215.127H77.4451C76.136 215.127 75.0693 216.194 75.0693 217.503C75.0693 218.812 76.136 219.879 77.4451 219.879Z" fill="black"/>
<path d="M77.4451 161.261H226.972C228.281 161.261 229.348 160.194 229.348 158.885C229.348 157.576 228.281 156.509 226.972 156.509H77.4451C76.136 156.509 75.0693 157.576 75.0693 158.885C75.0693 160.194 76.136 161.261 77.4451 161.261Z" fill="black"/>
<path d="M222.997 237.042C222.997 235.733 221.93 234.667 220.621 234.667H77.4451C76.136 234.667 75.0693 235.733 75.0693 237.042C75.0693 238.351 76.136 239.418 77.4451 239.418H220.621C221.93 239.418 222.997 238.351 222.997 237.042Z" fill="black"/>
<path d="M137.276 141.721H226.973C228.282 141.721 229.348 140.655 229.348 139.345C229.348 138.036 228.282 136.97 226.973 136.97H137.276C135.967 136.97 134.9 138.036 134.9 139.345C134.9 140.655 135.967 141.721 137.276 141.721Z" fill="black"/>
<path d="M155.554 254.061C155.554 252.751 154.488 251.685 153.179 251.685H84.2332C82.9241 251.685 81.8574 252.751 81.8574 254.061C81.8574 255.37 82.9241 256.436 84.2332 256.436H153.179C154.536 256.436 155.554 255.37 155.554 254.061Z" fill="black"/>
<path d="M77.4451 200.339H215.869C217.178 200.339 218.245 199.273 218.245 197.964C218.245 196.655 217.178 195.588 215.869 195.588H77.4451C76.136 195.588 75.0693 196.655 75.0693 197.964C75.0693 199.273 76.136 200.339 77.4451 200.339Z" fill="black"/>
<path d="M77.4451 180.8H226.972C228.281 180.8 229.348 179.733 229.348 178.424C229.348 177.115 228.281 176.048 226.972 176.048H77.4451C76.136 176.048 75.0693 177.115 75.0693 178.424C75.0693 179.733 76.136 180.8 77.4451 180.8Z" fill="black"/>
<path d="M168.257 274.667H118.512C114.924 274.667 111.966 277.576 111.966 281.212V288.727C111.966 292.315 114.924 295.273 118.512 295.273H168.257C171.845 295.273 174.803 292.363 174.803 288.727V281.212C174.754 277.624 171.845 274.667 168.257 274.667ZM170.003 288.727C170.003 289.697 169.227 290.521 168.209 290.521H118.512C117.542 290.521 116.718 289.745 116.718 288.727V281.212C116.718 280.242 117.494 279.418 118.512 279.418H168.257C169.227 279.418 170.051 280.194 170.051 281.212V288.727H170.003Z" fill="black"/>
<path d="M303.53 258.473H267.991C268.815 243.782 272.597 230.012 279.142 218.521C281.615 214.206 282.876 209.261 282.876 204.267C282.876 195.588 279.045 187.442 272.306 181.867C267.797 178.133 262.27 175.951 256.548 175.418V77.2848C256.548 61.1878 243.457 48.0485 227.312 48.0485H156.621L148.476 23.0303L164.912 12.5091C166.27 11.6363 166.851 10.0363 166.318 8.5333C165.833 7.03027 164.427 6.06057 162.827 6.15754L83.9423 11.006C81.2271 11.1515 78.6089 12.0242 76.3301 13.4788L9.66347 56C8.3059 56.8727 7.77257 58.4727 8.25741 59.9757C8.69378 61.3818 9.95438 62.303 11.4089 62.3515L16.3544 77.5757C15.5301 78.2545 14.8029 79.0303 14.318 80C13.4453 81.6969 13.2998 83.6848 13.8817 85.4788C14.4635 87.2242 15.6271 88.5333 17.1301 89.406C16.4514 90.7151 16.0635 92.1697 16.2089 93.7212L17.3241 104.776C17.4695 106.327 18.2938 107.685 19.6029 108.509C20.4271 109.042 21.3968 109.333 22.3665 109.333C22.8998 109.333 23.4332 109.236 23.918 109.091L33.3241 106.036C34.7786 105.551 35.9423 104.436 36.4756 103.03C37.0089 101.576 36.912 100.024 36.1362 98.6666L30.5604 89.0666C29.7847 87.7576 28.621 86.8363 27.312 86.1575C27.9907 84.606 28.1362 82.8121 27.6029 81.0666C26.6332 78.1091 23.918 76.2181 20.9604 76.1212L16.3059 62.0606L31.1907 61.1394L44.5241 102.158C45.1059 103.951 46.2695 105.261 47.8695 106.327V284.606C47.8695 300.703 60.9604 313.842 77.1059 313.842H219.118H288.694C292.621 313.842 296.257 311.515 297.906 307.927L302.657 297.697H303.53C308.718 297.697 312.985 293.479 312.985 288.242V267.879C312.936 262.691 308.718 258.473 303.53 258.473ZM278.124 204.267C278.124 208.436 277.057 212.558 274.973 216.194C268.039 228.412 263.966 243.006 263.142 258.521H244.67C244.039 244.751 239.966 230.497 232.209 215.079C229.833 210.376 229.106 205.139 230.027 199.855C231.773 190.158 239.385 182.351 249.033 180.509C256.257 179.103 263.627 180.945 269.203 185.551C274.876 190.158 278.124 196.994 278.124 204.267ZM78.8998 17.4545C80.4998 16.4363 82.3423 15.8545 84.2332 15.7091L158.076 11.2485L95.6756 51.0545C94.0756 52.0727 92.2332 52.6545 90.3423 52.8L25.9059 56.7272L77.8332 39.8545C79.1423 41.1151 81.1301 41.8424 83.4574 41.8424C84.8635 41.8424 86.3665 41.6 87.8695 41.1151C93.2029 39.3697 96.3059 35.3454 95.1423 31.7091C93.9786 28.0727 89.0816 26.6666 83.7483 28.4121C79.5786 29.7697 76.815 32.4848 76.2817 35.3454L24.4029 52.2182L78.8998 17.4545ZM80.9847 36.3151C80.8392 35.8303 82.0513 33.9394 85.2514 32.9212C88.3544 31.903 90.5362 32.7272 90.6817 33.1636C90.8271 33.6 89.5665 35.5394 86.4635 36.5575C83.2635 37.5757 81.1786 36.7515 80.9847 36.3151ZM32.015 101.042L31.8211 101.479L22.4635 104.533L23.1907 106.812L22.0271 104.291L20.912 93.2363C20.7665 91.8788 21.6392 90.5697 22.9483 90.1333C23.2392 90.0363 23.5301 89.9878 23.8695 89.9878C24.8877 89.9878 25.9059 90.5212 26.4392 91.4424L32.015 101.042ZM22.9968 82.5212C23.4332 83.7818 22.7059 85.1879 21.4453 85.5757C20.1847 86.0121 18.7786 85.2848 18.3423 84.0242C18.1483 83.3939 18.1968 82.7151 18.4877 82.1333C18.7786 81.5515 19.312 81.1151 19.9423 80.9212C21.2514 80.5333 22.6089 81.2121 22.9968 82.5212ZM36.1362 60.8484L90.6817 57.5515C93.3968 57.406 96.015 56.5333 98.2938 55.0788L144.354 25.6969L157.3 65.5515C158.318 68.703 153.421 73.8424 144.257 79.3212C134.948 84.8969 121.76 90.5697 107.166 95.3212C78.7544 104.533 58.1483 106.23 51.4089 102.933C51.312 102.885 51.215 102.836 51.118 102.788C50.0998 102.206 49.3726 101.576 49.1301 100.751L36.1362 60.8484ZM106.051 100.606C107.215 100.267 108.039 99.9757 108.573 99.8303C112.597 98.5212 137.373 90.2303 151.773 80.0485H193.663C196.233 80.0485 198.366 82.1333 198.366 84.7515V103.079C198.366 105.648 196.282 107.782 193.663 107.782H110.754C108.185 107.782 106.051 105.697 106.051 103.079V100.606ZM52.6695 284.606V108.315C55.1423 108.897 58.0513 109.188 61.2514 109.188C74.2453 109.188 91.4574 104.824 101.348 102.012V103.03C101.348 108.218 105.566 112.485 110.803 112.485H193.712C198.9 112.485 203.166 108.267 203.166 103.03V84.703C203.166 79.5151 198.948 75.2485 193.712 75.2485H157.542C161.179 71.5636 163.021 67.7818 161.809 64.0485L158.173 52.8H227.36C240.839 52.8 251.845 63.7575 251.845 77.2848V175.37C250.633 175.467 249.421 175.612 248.257 175.806C236.718 178.036 227.554 187.345 225.47 198.982C224.354 205.285 225.227 211.539 228.088 217.164C235.506 231.903 239.385 245.43 240.015 258.473H204.379C199.191 258.473 194.924 262.691 194.924 267.927V288.291C194.924 293.479 199.142 297.745 204.379 297.745H205.251L210.003 307.976C210.197 308.412 210.488 308.751 210.73 309.091H77.1059C63.6271 309.091 52.6695 298.085 52.6695 284.606ZM293.591 305.939C292.718 307.83 290.779 309.091 288.694 309.091H219.118C217.033 309.091 215.094 307.879 214.221 305.939L210.391 297.745H297.421L293.591 305.939ZM308.185 288.291C308.185 290.861 306.1 292.945 303.53 292.945H301.154H206.657H204.282C201.712 292.945 199.627 290.861 199.627 288.291V267.927C199.627 265.358 201.712 263.273 204.282 263.273H242.391H265.421H303.482C306.051 263.273 308.136 265.358 308.136 267.927V288.291H308.185Z" fill="black"/>
</svg>
