<svg width="401" height="400" viewBox="0 0 401 400" fill="none" xmlns="http://www.w3.org/2000/svg">
<path d="M388.675 270.062C388.675 270.049 388.672 270.038 388.672 270.027V100.745C388.666 94.2147 386.07 87.9538 381.453 83.3358C376.837 78.7177 370.577 76.1197 364.047 76.1118H348.718L348.656 18.6509C348.652 15.4474 347.378 12.3764 345.112 10.112C342.846 7.8475 339.774 6.57463 336.57 6.57275H211.219C208.017 6.57629 204.947 7.84994 202.682 10.1143C200.418 12.3786 199.144 15.4486 199.141 18.6509V57.3931L173.059 76.1118H153.961V74.104C153.954 67.7556 151.429 61.6692 146.94 57.1802C142.451 52.6911 136.364 50.166 130.016 50.1587H98.6251C92.2738 50.159 86.1828 52.682 81.6917 57.1729C77.2006 61.6638 74.6772 67.7548 74.6767 74.106V76.1118H36.9532C30.4233 76.1197 24.1633 78.7177 19.5467 83.3358C14.9301 87.9538 12.334 94.2147 12.3282 100.745V270.027C12.3282 270.039 12.3247 270.049 12.3247 270.062C12.3247 270.074 12.3281 270.085 12.3282 270.097V302.284C12.334 308.814 14.93 315.075 19.5466 319.693C24.1632 324.311 30.4233 326.909 36.9532 326.917H170.961L162.927 385.615H143.878C142.842 385.615 141.848 386.027 141.115 386.759C140.383 387.492 139.971 388.486 139.971 389.522C139.971 390.558 140.383 391.551 141.115 392.284C141.848 393.016 142.842 393.428 143.878 393.428H258.623C259.659 393.428 260.653 393.016 261.385 392.284C262.118 391.551 262.53 390.558 262.53 389.522C262.53 388.486 262.118 387.492 261.385 386.759C260.653 386.027 259.659 385.615 258.623 385.615H239.574L231.54 326.917H364.047C370.577 326.909 376.837 324.311 381.454 319.693C386.07 315.075 388.666 308.814 388.672 302.284V270.097C388.672 270.085 388.675 270.074 388.675 270.062ZM170.812 385.615L178.846 326.917H223.655L231.689 385.615H170.812ZM364.047 83.9243C368.505 83.9301 372.78 85.7044 375.932 88.8578C379.083 92.0111 380.856 96.2861 380.859 100.745V110.049H347.956C348.478 108.685 348.747 107.237 348.75 105.776L348.727 83.9243H364.047ZM205.32 62.5728C205.825 62.2117 206.236 61.7357 206.52 61.1841C206.804 60.6325 206.952 60.0212 206.953 59.4009V18.6509C206.955 17.52 207.405 16.4359 208.204 15.6362C209.004 14.8366 210.088 14.3867 211.219 14.3853H336.57C337.703 14.3868 338.789 14.8375 339.59 15.6386C340.392 16.4397 340.842 17.5258 340.844 18.6587L340.938 105.784C340.936 106.916 340.485 108.001 339.683 108.801C338.882 109.6 337.796 110.05 336.664 110.049H285.805C285.367 107.874 284.31 105.873 282.759 104.286C281.209 102.699 279.232 101.596 277.068 101.108C274.904 100.621 272.645 100.77 270.564 101.539C268.483 102.308 266.669 103.663 265.341 105.44L261.89 110.049H211.32C210.759 110.049 210.202 109.938 209.684 109.723C209.165 109.507 208.693 109.192 208.297 108.794C207.9 108.397 207.585 107.925 207.371 107.405C207.156 106.886 207.046 106.33 207.047 105.768L206.953 80.0024C206.95 78.9682 206.537 77.9773 205.805 77.2467C205.073 76.5161 204.081 76.1053 203.047 76.104H186.469L205.32 62.5728ZM268.38 133.238L284.092 145.005C285.056 145.726 285.868 146.631 286.483 147.666C287.097 148.702 287.501 149.849 287.672 151.04C287.843 152.232 287.778 153.446 287.48 154.613C287.182 155.779 286.657 156.876 285.935 157.839L283.931 160.517C282.977 161.789 281.606 162.685 280.058 163.049L269.931 165.425C265.947 166.362 262.42 168.669 259.965 171.942L256.578 176.467L240.394 164.346L244.19 159.276C246.324 156.436 247.534 153.008 247.656 149.458L247.799 145.46C247.883 143.024 248.713 140.672 250.177 138.723L271.594 110.123C272.181 109.34 273.054 108.822 274.022 108.683C274.99 108.544 275.974 108.795 276.757 109.382C277.54 109.968 278.058 110.841 278.197 111.809C278.336 112.777 278.085 113.761 277.498 114.544L267.595 127.77C266.974 128.599 266.708 129.641 266.855 130.666C267.002 131.692 267.551 132.617 268.38 133.238ZM154.477 212.467C153.689 212.72 153.002 213.217 152.514 213.885C152.027 214.554 151.764 215.36 151.764 216.187V266.155H88.5332V217.052C88.5332 216.016 88.1217 215.022 87.3891 214.29C86.6565 213.557 85.663 213.146 84.627 213.146C83.591 213.146 82.5974 213.557 81.8648 214.29C81.1323 215.022 80.7207 216.016 80.7207 217.052V266.155H50.7055V193.382C50.7128 186.954 53.2697 180.791 57.8153 176.245C62.361 171.7 68.5241 169.143 74.9525 169.135H95.8998L115.551 180.774C117.329 181.827 119.355 182.391 121.422 182.408C123.488 182.425 125.523 181.895 127.319 180.872C129.114 179.848 130.607 178.368 131.645 176.581C132.684 174.794 133.231 172.763 133.23 170.697V169.136H155.268C160.345 169.123 165.325 170.517 169.657 173.165C173.988 175.812 177.501 179.608 179.805 184.131L190.493 204.983C191.176 206.317 192.189 207.453 193.436 208.284C194.683 209.114 196.122 209.612 197.616 209.729C199.11 209.846 200.609 209.578 201.97 208.951C203.331 208.324 204.509 207.359 205.391 206.148L232.46 168.998L255.097 186.757L223.74 229.253C220.599 233.508 216.496 236.96 211.766 239.326C207.036 241.692 201.813 242.904 196.524 242.864C191.235 242.824 186.031 241.533 181.337 239.096C176.643 236.659 172.593 233.145 169.517 228.842L158.848 213.916C158.367 213.243 157.684 212.74 156.899 212.479C156.113 212.219 155.265 212.215 154.477 212.467ZM20.1407 266.155V117.862H63.6763C65.052 120.116 66.9204 122.03 69.1414 123.458C71.3624 124.887 73.8783 125.794 76.5001 126.112C79.2705 135.065 85.1432 142.736 93.0626 147.747V161.323H74.9525C66.4528 161.333 58.3039 164.713 52.2937 170.724C46.2835 176.734 42.9027 184.883 42.893 193.382V266.155H20.1407ZM165.378 117.862H256.039L243.923 134.039C241.503 137.262 240.13 141.151 239.992 145.18L239.849 149.178C239.781 151.136 239.114 153.026 237.937 154.593L233.776 160.149C232.943 159.607 231.934 159.406 230.958 159.588C229.981 159.77 229.112 160.321 228.53 161.126L199.077 201.547C198.98 201.68 198.851 201.786 198.702 201.854C198.553 201.923 198.389 201.952 198.226 201.939C198.062 201.927 197.904 201.872 197.768 201.781C197.631 201.69 197.52 201.566 197.446 201.42L186.758 180.568C183.801 174.763 179.293 169.891 173.734 166.494C168.175 163.097 161.783 161.307 155.269 161.323H133.227V149.057C141.783 144.393 148.334 136.755 151.641 127.588L151.637 127.586C154.577 127.305 157.392 126.26 159.802 124.554C162.213 122.848 164.135 120.541 165.378 117.862ZM100.875 151.549C105.191 153.088 109.739 153.873 114.32 153.87C118.075 153.871 121.81 153.338 125.414 152.285V169.917C125.414 169.904 125.418 169.892 125.418 169.88V170.696C125.418 171.384 125.236 172.06 124.89 172.655C124.544 173.25 124.047 173.743 123.45 174.084C122.852 174.425 122.175 174.601 121.487 174.595C120.799 174.59 120.124 174.402 119.532 174.052L100.875 163.002V151.549ZM150.053 119.85C148.258 119.85 146.503 119.318 145.01 118.32C143.518 117.323 142.354 115.905 141.667 114.247C140.98 112.588 140.8 110.763 141.15 109.002C141.501 107.241 142.365 105.624 143.635 104.355C144.904 103.085 146.521 102.221 148.282 101.87C150.043 101.52 151.868 101.7 153.527 102.387C155.185 103.074 156.603 104.237 157.6 105.73C158.598 107.222 159.13 108.977 159.13 110.773C159.128 113.179 158.171 115.487 156.469 117.188C154.767 118.89 152.46 119.847 150.053 119.85ZM98.6235 57.9718H130.012C133.143 57.9708 136.205 58.8866 138.822 60.6063C140.383 61.6327 141.756 62.9207 142.88 64.4137C144.998 67.201 146.145 70.605 146.147 74.1057V82.479L99.6966 82.2249H99.6325C96.8645 82.239 94.1915 83.236 92.0904 85.0381C89.9893 86.8402 88.5968 89.3302 88.1613 92.0638L87.7574 94.6837C87.6827 95.1667 87.4613 95.6151 87.1233 95.968C86.7852 96.3209 86.3468 96.5614 85.8674 96.6568C85.3881 96.7521 84.891 96.6978 84.4436 96.5011C83.9962 96.3044 83.6201 95.9749 83.3663 95.5573L82.4921 94.1182V74.1039C82.4944 69.8263 84.1947 65.7245 87.2194 62.6997C90.2441 59.6749 94.3459 57.9742 98.6235 57.9718ZM76.522 99.339L76.6885 99.6133C77.5838 101.111 78.8527 102.351 80.3708 103.211C81.8889 104.072 83.6044 104.523 85.3494 104.522C86.0353 104.522 86.7195 104.454 87.3921 104.32C89.4495 103.925 91.3331 102.9 92.7819 101.386C94.2307 99.8732 95.1729 97.9468 95.4781 95.8742L95.8824 93.2542C96.0247 92.3606 96.4799 91.5465 97.1668 90.9573C97.8536 90.3682 98.7275 90.0422 99.6324 90.0377H99.6534L146.148 90.2917V94.3441C143.109 95.073 140.33 96.6286 138.12 98.8387C135.91 101.049 134.354 103.827 133.625 106.867H129.865C129.615 106.868 129.365 106.893 129.12 106.942C128.179 102.904 125.787 99.3534 122.398 96.9657C119.009 94.578 114.86 93.5201 110.742 93.9934C106.623 94.4667 102.823 96.4381 100.064 99.5322C97.3049 102.626 95.7803 106.627 95.7803 110.773C95.7803 114.918 97.3049 118.919 100.064 122.013C102.823 125.108 106.623 127.079 110.742 127.552C114.86 128.025 119.009 126.968 122.398 124.58C125.787 122.192 128.179 118.642 129.12 114.604C129.365 114.653 129.614 114.678 129.865 114.679H133.625C134.253 117.297 135.496 119.727 137.25 121.77C139.004 123.812 141.219 125.407 143.712 126.423L143.711 126.424C141.129 132.652 136.636 137.898 130.879 141.407C125.123 144.916 118.401 146.506 111.682 145.948C104.964 145.39 98.5964 142.713 93.4977 138.303C88.3989 133.892 84.8326 127.977 83.3128 121.409C83.1136 120.548 82.6293 119.78 81.9386 119.23C81.2478 118.68 80.3913 118.379 79.5081 118.377C79.4144 118.377 79.3285 118.385 79.2347 118.393L79.1097 118.401C78.93 118.409 78.7581 118.424 78.5863 118.424C76.2052 118.425 73.9079 117.545 72.1358 115.955C70.3638 114.365 69.242 112.175 68.986 109.808C68.73 107.441 69.3579 105.062 70.7491 103.13C72.1402 101.198 74.1958 99.8474 76.522 99.339ZM121.75 110.773C121.75 112.568 121.218 114.323 120.221 115.816C119.223 117.309 117.806 118.472 116.147 119.159C114.488 119.846 112.663 120.026 110.902 119.676C109.142 119.326 107.524 118.461 106.255 117.192C104.985 115.922 104.121 114.305 103.77 112.544C103.42 110.783 103.6 108.958 104.287 107.3C104.974 105.641 106.137 104.223 107.63 103.226C109.123 102.229 110.878 101.696 112.673 101.696C115.08 101.699 117.387 102.656 119.088 104.358C120.79 106.059 121.747 108.366 121.75 110.773ZM199.156 83.9243L199.234 105.784C199.237 107.242 199.506 108.687 200.027 110.049H166.924C166.762 106.379 165.409 102.862 163.07 100.028C160.731 97.1952 157.534 95.2002 153.961 94.345V83.9243H199.156ZM20.1407 100.745C20.1445 96.2861 21.9167 92.0111 25.0686 88.8578C28.2206 85.7044 32.4947 83.9301 36.9532 83.9243H74.6767V91.7376C70.8251 92.6273 67.3883 94.7949 64.9261 97.8874C62.4639 100.98 61.1214 104.815 61.1173 108.768C61.1173 109.2 61.1464 109.625 61.1774 110.049H20.1407V100.745ZM364.047 319.104H36.9532C32.4947 319.098 28.2205 317.324 25.0686 314.171C21.9167 311.017 20.1444 306.742 20.1407 302.284V273.968H324.712C325.748 273.968 326.742 273.556 327.474 272.824C328.207 272.091 328.618 271.098 328.618 270.062C328.618 269.026 328.207 268.032 327.474 267.3C326.742 266.567 325.748 266.155 324.712 266.155H159.576V228.37L163.161 233.385C166.953 238.691 171.948 243.024 177.737 246.029C183.525 249.035 189.942 250.627 196.464 250.676C202.986 250.726 209.427 249.231 215.26 246.313C221.094 243.396 226.153 239.139 230.026 233.892L263.635 188.344C264.239 187.526 264.5 186.506 264.363 185.499C264.226 184.493 263.703 183.579 262.903 182.952L262.008 182.248L266.219 176.625C267.572 174.819 269.518 173.547 271.715 173.031L281.842 170.655C285.176 169.871 288.129 167.94 290.184 165.2L292.188 162.522C293.525 160.737 294.497 158.706 295.049 156.546C295.601 154.385 295.722 152.137 295.405 149.93C295.088 147.722 294.34 145.599 293.202 143.681C292.065 141.763 290.56 140.088 288.775 138.751L276.189 129.326L283.752 119.227C284.072 118.792 284.361 118.336 284.618 117.862H380.859V266.155H342.201C341.165 266.155 340.171 266.567 339.439 267.3C338.706 268.032 338.295 269.026 338.295 270.062C338.295 271.098 338.706 272.091 339.439 272.824C340.171 273.556 341.165 273.968 342.201 273.968H380.859V302.284C380.856 306.742 379.083 311.017 375.932 314.171C372.78 317.324 368.505 319.098 364.047 319.104Z" fill="black"/>
<path d="M247.553 72.9569C252.113 72.9569 256.571 71.6046 260.363 69.0711C264.154 66.5376 267.109 62.9366 268.855 58.7235C270.6 54.5104 271.056 49.8745 270.167 45.4019C269.277 40.9293 267.081 36.821 263.857 33.5965C260.632 30.3719 256.524 28.176 252.051 27.2863C247.578 26.3967 242.943 26.8533 238.729 28.5984C234.516 30.3435 230.915 33.2987 228.382 37.0904C225.848 40.8821 224.496 45.3399 224.496 49.9001C224.503 56.013 226.934 61.8736 231.257 66.1961C235.579 70.5185 241.44 72.95 247.553 72.9569ZM247.553 34.6558C250.568 34.6558 253.515 35.5498 256.022 37.2249C258.529 38.9 260.483 41.2808 261.637 44.0663C262.791 46.8519 263.092 49.917 262.504 52.8741C261.916 55.8312 260.464 58.5475 258.332 60.6794C256.2 62.8114 253.484 64.2632 250.527 64.8515C247.57 65.4397 244.505 65.1378 241.719 63.984C238.934 62.8302 236.553 60.8763 234.878 58.3693C233.203 55.8624 232.309 52.9151 232.309 49.9001C232.313 45.8585 233.921 41.9838 236.779 39.126C239.637 36.2682 243.511 34.6603 247.553 34.6558Z" fill="black"/>
<path d="M279.704 88.8348H322.47C323.163 88.8348 323.845 88.65 324.444 88.2994C325.042 87.9488 325.537 87.4451 325.876 86.8401C326.216 86.235 326.388 85.5504 326.375 84.8567C326.363 84.163 326.165 83.4852 325.804 82.8931L304.42 47.8649C304.072 47.2935 303.582 46.8214 302.998 46.4938C302.414 46.1662 301.756 45.9941 301.086 45.9941C300.417 45.9941 299.759 46.1662 299.175 46.4938C298.591 46.8214 298.101 47.2935 297.752 47.8649L276.37 82.8931C276.008 83.4852 275.811 84.163 275.798 84.8567C275.785 85.5504 275.957 86.235 276.297 86.8401C276.637 87.4451 277.131 87.9488 277.73 88.2994C278.329 88.65 279.01 88.8348 279.704 88.8348ZM301.086 57.3973L315.509 81.0223H286.665L301.086 57.3973Z" fill="black"/>
<path d="M306.188 36.4252H311.099V41.336C311.099 42.1648 311.428 42.9597 312.014 43.5457C312.601 44.1318 313.395 44.461 314.224 44.461C315.053 44.461 315.848 44.1318 316.434 43.5457C317.02 42.9597 317.349 42.1648 317.349 41.336V36.4252H322.26C323.089 36.4252 323.883 36.0959 324.47 35.5099C325.056 34.9238 325.385 34.129 325.385 33.3002C325.385 32.4714 325.056 31.6765 324.47 31.0905C323.883 30.5044 323.089 30.1752 322.26 30.1752H317.349V25.2642C317.349 24.4354 317.02 23.6405 316.434 23.0545C315.848 22.4684 315.053 22.1392 314.224 22.1392C313.395 22.1392 312.601 22.4684 312.014 23.0545C311.428 23.6405 311.099 24.4354 311.099 25.2642V30.1752H306.188C305.36 30.1752 304.565 30.5044 303.979 31.0905C303.393 31.6765 303.063 32.4714 303.063 33.3002C303.063 34.129 303.393 34.9238 303.979 35.5099C304.565 36.0959 305.36 36.4252 306.188 36.4252Z" fill="black"/>
<path d="M247.3 89.5068H231.229C230.4 89.5068 229.605 89.8361 229.019 90.4221C228.433 91.0082 228.104 91.803 228.104 92.6318C228.104 93.4606 228.433 94.2555 229.019 94.8415C229.605 95.4276 230.4 95.7568 231.229 95.7568H247.3C248.129 95.7568 248.924 95.4276 249.51 94.8415C250.096 94.2555 250.425 93.4606 250.425 92.6318C250.425 91.803 250.096 91.0082 249.51 90.4221C248.924 89.8361 248.129 89.5068 247.3 89.5068Z" fill="black"/>
<path d="M200.5 283.508C197.916 283.508 195.39 284.275 193.241 285.71C191.093 287.146 189.418 289.186 188.429 291.574C187.44 293.961 187.181 296.588 187.686 299.123C188.19 301.657 189.434 303.985 191.261 305.812C193.089 307.64 195.417 308.884 197.951 309.388C200.485 309.892 203.112 309.633 205.5 308.645C207.887 307.656 209.928 305.981 211.363 303.832C212.799 301.684 213.565 299.158 213.565 296.574C213.561 293.11 212.184 289.789 209.734 287.339C207.285 284.89 203.964 283.512 200.5 283.508ZM200.5 301.827C199.461 301.827 198.446 301.518 197.582 300.941C196.718 300.364 196.045 299.544 195.647 298.584C195.249 297.624 195.145 296.568 195.348 295.549C195.551 294.53 196.051 293.594 196.786 292.859C197.52 292.125 198.456 291.624 199.475 291.422C200.494 291.219 201.55 291.323 202.51 291.721C203.47 292.118 204.29 292.791 204.868 293.655C205.445 294.519 205.753 295.535 205.753 296.574C205.751 297.966 205.197 299.301 204.213 300.286C203.228 301.271 201.893 301.825 200.5 301.827Z" fill="black"/>
</svg>
