<svg width="44" height="44" viewBox="0 0 44 44" fill="none" xmlns="http://www.w3.org/2000/svg">
<path d="M9.625 34.375H8.25C4.45363 34.375 1.375 31.2964 1.375 27.5C1.375 23.7036 4.45363 20.625 8.25 20.625H9.625V34.375Z" stroke="white" stroke-width="2" stroke-miterlimit="10" stroke-linejoin="round"/>
<path d="M35.75 34.375H34.375V20.625H35.75C39.5464 20.625 42.625 23.7036 42.625 27.5C42.625 31.2964 39.5464 34.375 35.75 34.375Z" stroke="white" stroke-width="2" stroke-miterlimit="10" stroke-linejoin="round"/>
<path d="M6.875 20.625V16.5C6.875 8.14688 13.6469 1.375 22 1.375C30.3531 1.375 37.125 8.14688 37.125 16.5V20.625" stroke="white" stroke-width="2" stroke-miterlimit="10" stroke-linejoin="round"/>
<path d="M37.125 34.375V39.875C37.125 41.3944 35.8944 42.625 34.375 42.625H30.25" stroke="white" stroke-width="2" stroke-miterlimit="10" stroke-linejoin="round"/>
<path d="M24.75 42.625H27.5" stroke="white" stroke-width="2" stroke-miterlimit="10" stroke-linejoin="round"/>
<path d="M22 33V35.75" stroke="white" stroke-width="2" stroke-miterlimit="10" stroke-linejoin="round"/>
<path d="M22 30.25V26.6544C22 24.673 23.2059 22.8924 25.0456 22.1568C27.3584 21.2314 28.875 18.9915 28.875 16.5C28.875 12.7036 25.7964 9.625 22 9.625C18.2036 9.625 15.125 12.7036 15.125 16.5" stroke="white" stroke-width="2" stroke-miterlimit="10" stroke-linejoin="round"/>
</svg>
